<?xml version="1.0" encoding="UTF-8" standalone="no"?>
<!DOCTYPE svg PUBLIC "-//W3C//DTD SVG 1.1//EN" "http://www.w3.org/Graphics/SVG/1.1/DTD/svg11.dtd">
<svg width="100%" height="100%" viewBox="0 0 1024 1024" version="1.1" xmlns="http://www.w3.org/2000/svg" xmlns:xlink="http://www.w3.org/1999/xlink" xml:space="preserve" xmlns:serif="http://www.serif.com/" style="fill-rule:evenodd;clip-rule:evenodd;stroke-linecap:round;stroke-linejoin:round;stroke-miterlimit:1.5;">
    <rect id="Artboard1" x="0" y="0" width="1024" height="1024" style="fill:none;"/>
    <clipPath id="_clip1">
        <rect id="Artboard11" serif:id="Artboard1" x="0" y="0" width="1024" height="1024"/>
    </clipPath>
    <g clip-path="url(#_clip1)">
        <g>
            <g>
                <g transform="matrix(0.452602,-0.0911443,0.102558,0.509282,-40.3154,101.955)">
                    <path d="M978.151,153.217L730.005,162.632L730.142,207.577L979.479,216.993L978.151,153.217Z" style="fill:rgb(89,89,89);stroke:rgb(31,31,31);stroke-width:28.49px;"/>
                </g>
                <path d="M351.719,207.838C349.086,305.635 296.181,383.899 230.443,384.67C162.257,385.468 105.92,302.594 104.715,199.717C103.51,96.84 157.89,12.668 226.075,11.869C290.593,11.113 344.502,85.27 351.136,180.393C368.38,168.896 387.981,164.414 406.725,169.453C447.499,180.414 469.191,232.388 456.107,286.425C450.008,249.644 425.314,218.864 389.84,209.328C377.081,205.898 364.15,205.545 351.719,207.838Z" style="fill:rgb(89,89,89);stroke:rgb(31,31,31);stroke-width:14px;"/>
                <g transform="matrix(0.831765,-0.00974441,0.0100668,0.859281,-273.475,-14.0875)">
                    <ellipse cx="578.486" cy="260.828" rx="126.875" ry="210.037" style="fill:rgb(166,186,215);stroke:rgb(31,31,31);stroke-width:18.92px;"/>
                </g>
                <g transform="matrix(0.758887,-7.13561e-18,6.61935e-18,0.818074,-247.969,27.3589)">
                    <ellipse cx="619.946" cy="259.883" rx="43.968" ry="65.247" style="fill:rgb(0,78,152);stroke:rgb(13,26,38);stroke-width:17.74px;"/>
                </g>
            </g>
            <path d="M396.466,990.871C333.906,990.409 255.48,874.941 217.382,810.907C209.578,797.79 208.901,779.982 200.781,777.665C141.888,760.863 14.95,719.469 14.95,599.459C14.95,480.455 154.009,373.081 190.882,350.326C219.324,332.773 301.609,285.951 329.09,255.146C345.045,237.261 362.172,221.306 379.802,207.26C383.153,207.744 386.502,208.43 389.84,209.328C425.314,218.864 450.008,249.644 456.107,286.425C467.273,240.31 453.111,195.697 423.381,176.798C477.724,143.68 531.919,127.547 568.041,127.547C619.822,127.547 728.146,150.347 820.486,277.572C885.509,367.16 847.315,726.29 835.969,785.866C835.572,787.951 835.104,790.021 834.563,792.091L834.563,792.091C816.026,892.796 809.761,951.789 791.875,1033L397.949,1033L396.833,990.872L396.466,990.871Z" style="fill:rgb(159,211,80);stroke:rgb(47,69,33);stroke-width:14px;"/>
            <path d="M614.458,822.353C540.21,925.608 495.733,991.029 396.466,991.029L396.466,1034L646.284,1034C649.551,975.465 655.096,908.355 614.458,822.353" style="fill:rgb(254,250,65);"/>
            <path d="M609.483,829.242C570.446,883.304 539.338,926.405 503.423,954.449C484.875,968.932 465.034,979.344 442.123,985.266C429.132,988.624 415.16,990.585 399.853,990.933L399.99,991.07L399.616,991.074C399.1,991.076 398.583,991.077 398.067,991.079L396.802,991.074L396.716,990.982L398.021,990.968C398.537,990.959 399.052,990.949 399.568,990.94L399.853,990.933L397.998,989.075C421.276,964.192 440.595,943.377 396.466,987.54C352.353,943.391 371.657,964.192 394.933,989.075L389.465,994.553C389.29,994.728 389.459,995.058 389.456,995.326L389.429,998.24C365.92,1023.37 345.729,1045.12 389.399,1001.51L389.429,998.24L393.453,993.936L396.466,990.714L396.716,990.982L396.466,990.985C396.441,990.985 396.421,991.004 396.421,991.029C396.421,991.029 396.436,992.153 396.46,994.037C396.462,994.171 396.366,994.349 396.465,994.449L396.466,994.45L389.399,1001.51C389.276,1014.24 389.103,1034 389.103,1034C389.103,1038.07 392.399,1041.36 396.466,1041.36C396.466,1041.36 458.92,1041.68 521.375,1041.8C583.829,1041.92 646.284,1041.85 646.284,1041.85C650.449,1041.85 653.888,1038.6 654.12,1034.44C656.218,995.35 659.353,952.475 649.315,902.92C644.536,879.327 636.791,854.223 624.526,827.357C623.798,825.763 623.35,823.982 622.284,822.558C622.201,822.447 622.13,822.35 622,822.301C616.352,820.167 620.547,822.268 614.458,822.353C610.539,827.059 610.33,822.226 609.482,828.238C609.434,828.58 609.437,828.914 609.483,829.242ZM609.483,829.242L609.491,829.3C570.679,883.592 539.807,926.947 503.919,955.083C485.313,969.67 465.371,980.222 442.309,985.996C429.298,989.254 415.29,990.944 399.99,991.07L403.467,994.552C403.641,994.728 403.472,995.058 403.475,995.326L403.502,998.24C427.008,1023.37 447.218,1045.14 403.532,1001.51L403.502,998.24L399.478,993.936L396.802,991.074L396.509,991.073C396.509,991.073 396.471,994.037 396.471,994.037C396.469,994.171 396.566,994.349 396.466,994.449L396.466,994.45L403.532,1001.51L403.763,1026.6C422.002,1026.52 471.688,1026.3 521.375,1026.2C570.965,1026.11 620.555,1026.13 638.88,1026.14C640.65,995.88 642.457,963.241 637.808,926.78C634.23,898.726 626.782,868.408 612.469,835.065C611.641,833.135 609.792,831.334 609.491,829.3L614.458,822.353L609.483,829.242Z" style="fill:rgb(115,112,38);"/>
            <path d="M396.152,997.864C439.718,999.901 475.698,984.466 506.524,960.605C540.372,934.405 567.99,897.983 592.647,864.084C611.099,838.717 628.084,815.054 644.623,798.207C649.657,793.08 654.57,788.561 659.55,784.842C663.679,781.758 667.694,779.111 671.936,777.24C676.468,775.241 680.996,773.829 685.863,773.557L689.291,773.711L689.599,766.855L686.171,766.701C685.01,766.595 683.855,766.587 682.701,766.534C677.996,766.317 673.388,766.57 668.689,767.685C663.285,768.966 657.965,771.31 652.64,774.435C646.615,777.97 640.691,782.655 634.813,788.191C617.147,804.828 599.896,829.461 580.858,855.485C556.884,888.258 530.402,923.743 497.677,949.206C469.5,971.13 436.686,985.593 396.779,983.878L389.786,983.564L389.159,997.55L396.152,997.864Z" style="fill:rgb(47,69,33);"/>
            <g transform="matrix(1,0,0,1.39463,2.55762,-331.37)">
                <path d="M250.987,781.655C244.788,765.516 309.075,779.038 377.272,770.875C460.017,760.97 549.569,732.503 539.42,751.465C510.897,804.752 435.9,866.024 375.912,866.024C315.924,866.024 269.069,828.726 250.987,781.655Z" style="fill:white;stroke:rgb(47,69,33);stroke-width:11.54px;"/>
            </g>
            <path d="M159.63,764.393C251.636,808.538 454.082,779.928 557.975,731.915C635.237,696.21 777.626,594.014 732.377,512" style="fill:rgb(159,211,80);"/>
            <path d="M156.602,770.704C196.397,789.849 256.422,795.92 320.502,792.543C406.809,787.995 500.469,766.496 561.038,738.544C605.288,718.036 670.563,676.041 710.804,628.326C717.878,619.937 724.244,611.404 729.481,602.708C735.314,593.023 739.882,583.202 742.777,573.385C746.004,562.442 747.324,551.53 746.144,540.88C745.198,532.348 742.564,524.112 738.493,515.979C737.546,514.087 736.582,512.173 735.478,510.289C734.534,508.578 732.378,507.955 730.666,508.899C728.955,509.843 728.332,511.999 729.276,513.711C733.71,522.894 735.615,532.179 735.74,541.507C735.865,550.807 733.941,560.082 730.591,569.402C727.469,578.087 723.026,586.739 717.572,595.352C712.502,603.359 706.611,611.347 699.972,619.15C660.874,665.103 597.727,705.558 554.912,725.287C505.047,748.361 432.19,766.856 360.029,774.871C284.198,783.294 209.096,780.307 162.658,758.082C159.175,756.41 154.99,757.881 153.319,761.365C151.647,764.848 153.118,769.033 156.602,770.704Z" style="fill:rgb(47,69,33);"/>
            <path d="M795.302,398.578C867.025,427.201 928.342,516.005 929.357,593.655C930.896,711.367 782.485,781.702 770.311,822.353" style="fill:rgb(159,211,80);"/>
            <path d="M794,401.842C801.168,405.332 808.042,409.553 814.89,414.169C821.467,418.603 827.844,423.502 834.12,428.753C837.792,431.824 841.42,435 845.001,438.284C858.989,451.111 871.937,465.841 882.943,481.956C906.367,516.254 921.491,556.317 921.928,593.752C922.32,622.568 913.179,648.373 899.35,671.535C882.69,699.441 859.148,723.45 836.682,744.355C825.778,754.5 815.033,763.827 805.542,772.665C797.307,780.334 790.008,787.605 783.987,794.335C774.875,804.52 768.767,813.579 766.944,821.344C766.388,823.202 767.444,825.163 769.303,825.719C771.161,826.276 773.121,825.219 773.678,823.361C775.917,817.278 781.817,810.917 789.724,803.568C795.062,798.606 801.35,793.351 808.237,787.638C812.289,784.278 816.542,780.782 820.902,777.087C844.726,756.894 872.674,732.328 895.209,703.477C919.591,672.26 937.306,635.777 936.787,593.558C936.206,553.426 920.24,510.35 894.904,473.734C883.142,456.736 869.491,441 854.276,427.862C850.362,424.482 846.345,421.278 842.203,418.314C835.129,413.254 827.822,408.77 820.303,404.957C812.534,401.017 804.623,397.85 796.605,395.314C794.803,394.595 792.757,395.474 792.038,397.276C791.319,399.077 792.198,401.124 794,401.842Z" style="fill:rgb(47,69,33);"/>
            <path d="M351.136,180.393C368.38,168.896 387.981,164.414 406.725,169.453C447.499,180.414 469.191,232.388 456.107,286.425C450.008,249.644 425.314,218.864 389.84,209.328C377.081,205.898 364.15,205.545 351.719,207.838" style="fill:rgb(89,89,89);stroke:rgb(31,31,31);stroke-width:14px;"/>
            <g>
                <path d="M756.074,213.474C757.169,227.102 757.473,241.093 756.919,255.347C751.9,384.579 678.286,486.798 592.633,483.472C506.979,480.146 441.514,372.525 446.533,243.294C451.551,114.062 525.166,11.843 610.819,15.169C676.078,17.703 729.619,80.779 749.195,167.829L985.194,145.661L990.072,209.264L756.074,213.474Z" style="fill:rgb(89,89,89);stroke:rgb(31,31,31);stroke-width:14px;"/>
                <g transform="matrix(1.04484,0.0405762,-0.0415311,1.06943,-14.7048,-48.6281)">
                    <ellipse cx="578.486" cy="260.828" rx="126.875" ry="210.037" style="fill:rgb(166,186,215);stroke:rgb(31,31,31);stroke-width:15.12px;"/>
                </g>
                <g transform="matrix(0.952431,0,0,0.961924,27.3986,12.3797)">
                    <ellipse cx="619.946" cy="259.883" rx="43.968" ry="65.247" style="fill:rgb(0,78,152);stroke:rgb(13,26,38);stroke-width:14.63px;"/>
                </g>
            </g>
            <path d="M91.77,613.022C90.499,620.991 91.078,628.749 92.658,636.3C93.354,639.627 94.35,642.785 95.539,645.819C96.216,647.545 96.938,649.233 97.863,650.759C98.838,652.367 99.907,653.819 101.12,655.122C102.481,656.586 103.724,657.746 105.202,658.85C106.964,660.166 108.311,660.928 109.975,661.935C111.382,663.971 114.177,664.483 116.213,663.076C118.25,661.67 118.761,658.875 117.355,656.838C116.807,654.309 116.806,652.041 115.999,649.091C115.391,646.867 114.712,644.635 113.688,642.324C113.008,640.788 112.065,639.339 111.214,637.806C109.987,635.596 108.661,633.421 107.466,631.08C104.563,625.397 101.789,619.614 100.738,613.022C100.738,610.548 98.729,608.538 96.254,608.538C93.779,608.538 91.77,610.548 91.77,613.022Z" style="fill:rgb(47,69,33);"/>
            <g transform="matrix(-1.0739,0.179407,0.196001,1.17323,213.192,-126.876)">
                <path d="M101.059,613.022C102.199,619.616 105.053,625.449 108.012,631.169C109.238,633.537 110.592,635.747 111.837,637.981C112.702,639.534 113.665,641.007 114.341,642.553C115.358,644.883 116.007,647.119 116.573,649.337C117.325,652.285 117.241,654.528 117.726,657.036C119.144,659.088 118.474,661.807 116.233,663.104C113.991,664.401 111.021,663.789 109.604,661.737C107.865,660.677 106.446,659.869 104.608,658.497C103.072,657.351 101.782,656.159 100.379,654.662C99.135,653.333 98.044,651.865 97.059,650.243C96.128,648.712 95.418,647.027 94.754,645.304C93.594,642.293 92.639,639.161 91.99,635.866C90.533,628.465 90.094,620.857 91.449,613.022C91.449,610.595 93.602,608.624 96.254,608.624C98.906,608.624 101.059,610.595 101.059,613.022Z" style="fill:rgb(47,69,33);"/>
            </g>
            <path d="M586.071,955.957C582.648,960.335 578.394,964.113 573.713,968.247C569.571,971.906 565.051,975.402 560.239,979.056C556.217,982.11 552.061,985.243 547.67,988.287C537.969,995.013 527.319,1001.45 516.15,1007.16C488.291,1021.39 457.55,1031.61 433.404,1033.92C429.007,1034.32 425.764,1038.22 426.167,1042.62C426.57,1047.01 430.467,1050.26 434.864,1049.85C465.579,1047.13 506.624,1033.15 540.084,1012.98C546.653,1009.02 552.954,1004.85 558.739,1000.38C562.833,997.219 566.732,993.987 570.224,990.529C573.981,986.809 577.371,983.016 580.254,979.011C585.117,972.258 588.584,965.506 591.033,958.674C591.782,957.305 591.28,955.585 589.91,954.835C588.541,954.085 586.821,954.588 586.071,955.957Z" style="fill:rgb(115,112,38);"/>
        </g>
    </g>
</svg>
